<?xml version="1.0" standalone="no"?>
<!DOCTYPE svg PUBLIC "-//W3C//DTD SVG 20010904//EN"
 "http://www.w3.org/TR/2001/REC-SVG-20010904/DTD/svg10.dtd">
<svg version="1.0" xmlns="http://www.w3.org/2000/svg"
 width="360.000000pt" height="360.000000pt" viewBox="0 0 360.000000 360.000000"
 preserveAspectRatio="xMidYMid meet">

<g transform="translate(0.000000,360.000000) scale(0.100000,-0.100000)"
fill="#000000" stroke="none">
<path d="M1211 2754 c-305 -134 -565 -251 -578 -259 l-23 -15 0 -249 0 -249
-36 -27 c-67 -51 -83 -137 -39 -210 58 -100 205 -101 265 -3 14 23 20 51 20
91 0 56 -1 59 -50 108 l-50 50 0 184 c0 101 4 186 9 189 7 5 147 -37 366 -109
l40 -13 3 -241 2 -242 47 -29 c101 -65 270 -119 431 -141 109 -14 363 -7 457
14 105 23 237 71 310 112 36 20 66 37 67 38 1 1 5 112 8 246 l5 244 85 28 c47
15 157 50 245 78 88 28 165 55 172 59 19 12 25 55 11 75 -19 25 -1146 517
-1183 516 -16 0 -279 -111 -584 -245z m695 87 c49 -22 168 -74 264 -116 96
-42 200 -88 230 -102 30 -14 75 -33 100 -43 25 -10 79 -33 120 -52 41 -19 90
-40 108 -48 18 -7 29 -16 25 -20 -4 -5 -73 -28 -152 -53 -143 -45 -145 -46
-170 -28 -116 82 -321 146 -514 160 -276 21 -548 -34 -724 -145 l-52 -33 -143
45 c-79 25 -147 49 -151 53 -4 5 14 17 40 29 83 35 467 203 498 218 179 82
394 173 411 174 12 0 61 -18 110 -39z m89 -426 c101 -17 228 -55 295 -89 l45
-23 3 -202 c2 -191 1 -203 -15 -196 -72 28 -207 69 -266 80 -237 45 -528 20
-735 -64 -30 -12 -58 -19 -63 -16 -5 4 -9 89 -9 194 0 216 -5 203 97 244 199
80 436 107 648 72z m70 -550 c127 -34 217 -67 207 -77 -14 -14 -149 -58 -237
-76 -101 -20 -352 -22 -450 -3 -149 28 -282 76 -255 90 48 26 207 70 305 85
69 10 371 -3 430 -19z m-1365 -10 c17 -20 4 -62 -21 -70 -15 -5 -28 -1 -42 14
-18 17 -19 24 -9 46 13 29 52 34 72 10z"/>
<path d="M1395 1141 c-116 -32 -275 -75 -425 -115 -394 -104 -410 -109 -441
-159 -16 -26 -19 -44 -16 -89 8 -99 63 -159 144 -159 21 0 187 40 370 90 182
50 335 91 340 91 4 -1 23 -22 42 -48 41 -59 104 -107 173 -135 73 -28 332 -31
419 -5 70 22 155 84 194 143 17 24 34 45 39 45 5 0 158 -40 340 -90 196 -53
350 -90 378 -90 39 0 52 5 81 33 56 53 74 154 37 214 -24 40 -51 54 -175 87
-159 42 -197 53 -435 117 -300 82 -298 81 -352 76 -81 -7 -151 -77 -164 -164
-3 -23 -12 -47 -20 -53 -17 -15 -231 -15 -248 0 -8 6 -17 30 -20 53 -14 94
-84 159 -174 163 -32 2 -70 -1 -87 -5z m117 -121 c19 -14 27 -33 32 -70 8 -58
50 -115 103 -136 46 -20 274 -19 312 0 61 32 92 84 104 175 1 8 14 23 29 34
l27 20 233 -62 c528 -142 604 -163 616 -175 15 -15 6 -65 -13 -72 -13 -5 -89
14 -500 125 -82 23 -176 48 -208 58 -71 20 -82 15 -119 -54 -35 -64 -105 -128
-154 -142 -50 -14 -298 -14 -348 0 -49 14 -119 78 -154 142 -37 69 -48 74
-119 54 -32 -10 -125 -35 -208 -58 -411 -111 -487 -130 -500 -125 -19 7 -28
57 -13 72 12 12 801 231 839 233 9 1 28 -8 41 -19z"/>
</g>
</svg>
