<?xml version="1.0" standalone="no"?>
<!DOCTYPE svg PUBLIC "-//W3C//DTD SVG 20010904//EN"
 "http://www.w3.org/TR/2001/REC-SVG-20010904/DTD/svg10.dtd">
<svg version="1.0" xmlns="http://www.w3.org/2000/svg"
 width="360.000000pt" height="360.000000pt" viewBox="0 0 360.000000 360.000000"
 preserveAspectRatio="xMidYMid meet">

<g transform="translate(0.000000,360.000000) scale(0.100000,-0.100000)"
fill="#000000" stroke="none">
<path d="M0 1800 l0 -1800 1800 0 1800 0 0 1800 0 1800 -1800 0 -1800 0 0
-1800z m1647 844 c-3 -3 -12 -4 -19 -1 -8 3 -5 6 6 6 11 1 17 -2 13 -5z m750
0 c-3 -3 -12 -4 -19 -1 -8 3 -5 6 6 6 11 1 17 -2 13 -5z m-1002 -1168 c33 -8
63 -12 67 -10 5 3 8 1 8 -3 0 -5 21 -19 46 -31 52 -26 140 -105 176 -160 45
-68 62 -97 63 -107 8 -75 19 -115 34 -116 10 0 11 -2 4 -6 -8 -3 -13 -22 -13
-46 0 -69 -35 -193 -71 -253 -98 -163 -305 -263 -485 -234 -122 20 -206 61
-284 140 -96 95 -140 204 -140 344 0 147 43 251 144 351 120 121 288 169 451
131z m1302 -88 c-3 -8 -6 -5 -6 6 -1 11 2 17 5 13 3 -3 4 -12 1 -19z m110
-370 c-3 -7 -5 -2 -5 12 0 14 2 19 5 13 2 -7 2 -19 0 -25z m0 -120 c-2 -13 -4
-3 -4 22 0 25 2 35 4 23 2 -13 2 -33 0 -45z m-3 -196 c-2 -164 0 -162 -167
-162 l-120 0 -31 33 -31 33 -31 -33 c-31 -33 -32 -33 -128 -33 -90 0 -99 2
-121 25 -24 23 -25 30 -25 145 l0 120 60 0 60 0 0 -85 c0 -82 1 -85 23 -85 14
0 28 11 38 29 18 31 59 43 129 37 19 -1 50 -3 68 -4 25 -2 37 -9 50 -32 15
-28 21 -30 62 -28 l45 3 3 83 3 82 32 0 c18 0 42 6 53 14 27 21 30 7 28 -142z"/>
<path d="M1178 1357 c-128 -36 -234 -158 -259 -298 -38 -213 116 -413 337
-436 147 -16 309 77 371 214 32 70 42 188 23 261 -28 102 -109 194 -210 240
-66 31 -188 39 -262 19z m227 -135 c149 -76 182 -284 64 -400 -106 -105 -256
-106 -358 -4 -140 140 -86 352 109 426 32 12 145 -1 185 -22z"/>
<path d="M1230 1118 c-104 -53 -104 -186 1 -241 68 -36 147 -6 180 69 16 36
18 51 10 82 -12 44 -52 85 -100 101 -44 14 -39 15 -91 -11z"/>
</g>
</svg>
