<?xml version="1.0" standalone="no"?>
<!DOCTYPE svg PUBLIC "-//W3C//DTD SVG 20010904//EN"
 "http://www.w3.org/TR/2001/REC-SVG-20010904/DTD/svg10.dtd">
<svg version="1.0" xmlns="http://www.w3.org/2000/svg"
 width="360.000000pt" height="360.000000pt" viewBox="0 0 360.000000 360.000000"
 preserveAspectRatio="xMidYMid meet">

<g transform="translate(0.000000,360.000000) scale(0.100000,-0.100000)"
fill="#000000" stroke="none">
<path d="M1770 3070 c-8 -5 -102 -185 -210 -401 l-196 -393 -69 -12 c-39 -7
-164 -27 -280 -44 -508 -75 -530 -79 -542 -97 -31 -41 -19 -55 303 -372 l317
-311 -73 -440 c-71 -427 -73 -440 -55 -460 10 -11 26 -20 36 -20 10 0 192 90
403 200 211 110 390 200 396 200 6 0 185 -90 396 -200 211 -110 393 -200 403
-200 10 0 26 9 36 20 18 20 17 31 -54 460 l-73 439 316 312 c263 259 316 316
316 339 0 15 -6 33 -14 39 -8 6 -85 23 -172 36 -523 80 -691 105 -702 105 -6
0 -99 175 -206 389 -107 213 -202 396 -211 405 -18 18 -43 20 -65 6z m205
-527 c94 -189 180 -353 192 -362 14 -11 56 -23 115 -30 51 -7 134 -19 183 -27
50 -8 180 -28 289 -44 110 -17 201 -32 203 -34 2 -2 -123 -127 -277 -277 -154
-150 -283 -283 -285 -294 -3 -11 24 -192 58 -402 35 -211 61 -383 58 -383 -6
0 -181 90 -537 276 -89 46 -167 84 -173 84 -6 0 -167 -81 -358 -180 -191 -99
-349 -177 -352 -175 -2 3 23 175 57 383 35 207 62 385 62 394 0 9 -128 142
-285 295 l-285 278 32 7 c18 4 114 19 213 33 449 67 535 82 552 98 10 8 95
171 188 361 94 189 172 345 175 344 3 0 82 -155 175 -345z"/>
</g>
</svg>
